<svg viewBox="0 0 250.44 116.35" xmlns:xlink="http://www.w3.org/1999/xlink" xmlns="http://www.w3.org/2000/svg" data-name="Layer 1" id="Layer_1"><defs><style>.cls-1{fill:none;}.cls-2{clip-path:url(#clip-path);}.cls-3{clip-path:url(#clip-path-2);}.cls-4{clip-path:url(#clip-path-3);}</style><clipPath transform="translate(-129.6 -186.19)" id="clip-path"><rect height="26.14" width="26.14" y="276.4" x="353.9" class="cls-1"></rect></clipPath><clipPath transform="translate(-129.6 -186.19)" id="clip-path-2"><circle r="13.07" cy="289.47" cx="366.97" class="cls-1"></circle></clipPath><clipPath transform="translate(-129.6 -186.19)" id="clip-path-3"><rect height="26.67" width="28" y="276" x="353.33" class="cls-1"></rect></clipPath></defs><path transform="translate(-129.6 -186.19)" d="M129.6,191.71h29.22q11.79,0,17.13,5.77t5.33,18.83v4.77q0,15.42-11,18.44a13.54,13.54,0,0,1,9.54,8.17q2.78,6.39,2.77,16.93,0,17.19-5.14,26.05t-18.59,8.83H129.6Zm25.47,40.54a3.77,3.77,0,0,0,3.75-2.06,13.79,13.79,0,0,0,1-5.86V213.54q0-5.26-4.62-5.27h-4.52v24Zm-2.27,48.31c5.61,0,8.42-2.67,8.42-8V259.1c0-3.26-.49-5.73-1.46-7.39s-2.65-2.52-5.08-2.52h-4v31.25Z"></path><path transform="translate(-129.6 -186.19)" d="M209.15,300.5q-27.48,0-27.48-28.48v-36.9q0-13,7.33-20.75t20.15-7.72q12.78,0,20.12,7.72t7.36,20.75V272Q236.63,300.51,209.15,300.5Zm0-16.94a4.31,4.31,0,0,0,3.87-1.87,9.11,9.11,0,0,0,1.27-5.15V231.62c0-5.35-1.71-8-5.14-8s-5.15,2.69-5.15,8v44.92a9.28,9.28,0,0,0,1.25,5.15A4.35,4.35,0,0,0,209.15,283.56Z"></path><path transform="translate(-129.6 -186.19)" d="M256.81,300.5c-5.76,0-9.74-1.21-11.91-3.63s-3.27-6.32-3.27-11.68V227.85h-6.15V211.17h6.15V191.71H263v19.46h6.29v16.68H263v51.57a12.07,12.07,0,0,0,.37,3.52c.26.75.94,1.12,2,1.12a22.42,22.42,0,0,0,2.38-.12,15.24,15.24,0,0,1,1.52-.13v15.06c-1.26.34-3.09.69-5.48,1.07A45.2,45.2,0,0,1,256.81,300.5Z"></path><path transform="translate(-129.6 -186.19)" d="M285.93,300.5q-10.67,0-14.63-7.08t-3.95-20.27q0-10.8,2.81-16.57a18.45,18.45,0,0,1,7.85-8.46,95.34,95.34,0,0,1,15.32-6l6-2v-9.42a9.19,9.19,0,0,0-1.44-5.56,4.21,4.21,0,0,0-3.46-2,3.84,3.84,0,0,0-3.06,1.64,6.77,6.77,0,0,0-1.31,4.38v5.52H268.74v-3q0-13.56,6.34-19.33t20.64-5.77q11.41,0,18.56,5.95t7.15,16.88v70H299.6V288.58a18,18,0,0,1-5.21,8.79A12.4,12.4,0,0,1,285.93,300.5Zm8.65-17.06a3.72,3.72,0,0,0,3.58-2.07,11,11,0,0,0,1.06-5.08v-25.6a16.58,16.58,0,0,0-7.21,4.77c-1.54,1.91-2.31,4.59-2.31,8v11.81Q289.7,283.44,294.58,283.44Z"></path><path transform="translate(-129.6 -186.19)" d="M322.82,201.5V186.19h22V201.5Zm0,98V207.65h22V299.5Z"></path><g class="cls-2"><g class="cls-3"><g class="cls-4"><g class="cls-2"><g class="cls-3"><path transform="translate(-129.6 -186.19)" d="M353.9,276.4H380v26.14H353.9Z"></path></g></g></g></g></g></svg>